<svg preserveAspectRatio="xMidYMid meet" width="100%" height="100%" overflow="visible" style="display: block;" viewBox="0 0 41.0106 37.501" fill="none" xmlns="http://www.w3.org/2000/svg">
<path id="Icon" d="M31.774 25.9442C34.5038 27.3155 36.8442 29.5162 38.5526 32.2681C38.8909 32.813 39.06 33.0855 39.1185 33.4628C39.2374 34.2296 38.713 35.1722 37.9989 35.4757C37.6475 35.625 37.2521 35.625 36.4615 35.625M28.024 17.8729C30.8022 16.4923 32.7115 13.6254 32.7115 10.3125C32.7115 6.99964 30.8022 4.13271 28.024 2.75205M24.274 10.3125C24.274 14.9724 20.4964 18.75 15.8365 18.75C11.1766 18.75 7.399 14.9724 7.399 10.3125C7.399 5.6526 11.1766 1.875 15.8365 1.875C20.4964 1.875 24.274 5.6526 24.274 10.3125ZM2.82256 31.7594C5.81189 27.271 10.5291 24.375 15.8365 24.375C21.1439 24.375 25.8611 27.271 28.8504 31.7594C29.5053 32.7427 29.8328 33.2343 29.7951 33.8623C29.7657 34.3514 29.4452 34.95 29.0544 35.2455C28.5526 35.625 27.8624 35.625 26.4821 35.625H5.19092C3.81058 35.625 3.1204 35.625 2.61858 35.2455C2.22785 34.95 1.9073 34.3514 1.87794 33.8623C1.84025 33.2343 2.16768 32.7427 2.82256 31.7594Z" stroke="#F9FAFB" stroke-width="3.75" stroke-linecap="round" stroke-linejoin="round"/>
</svg>
