<svg preserveAspectRatio="xMidYMid meet" width="100%" height="100%" overflow="visible" style="display: block;" viewBox="0 0 37.5 37.5" fill="none" xmlns="http://www.w3.org/2000/svg">
<path id="Icon" d="M35.625 35.625H4.87501C3.82491 35.625 3.29986 35.625 2.89878 35.4206C2.54597 35.2409 2.25913 34.954 2.07937 34.6012C1.87501 34.2001 1.87501 33.6751 1.87501 32.625V1.875M33.75 11.25L26.4021 19.0925C26.1237 19.3897 25.9844 19.5383 25.8164 19.6151C25.6682 19.6829 25.5048 19.7109 25.3424 19.6962C25.1585 19.6797 24.9777 19.5858 24.6163 19.3981L18.5087 16.2269C18.1473 16.0392 17.9665 15.9453 17.7826 15.9288C17.6202 15.9141 17.4568 15.9421 17.3086 16.0099C17.1406 16.0867 17.0014 16.2353 16.7229 16.5325L9.37501 24.375" stroke="#F9FAFB" stroke-width="3.75" stroke-linecap="round" stroke-linejoin="round"/>
</svg>
