<svg preserveAspectRatio="xMidYMid meet" width="100%" height="100%" overflow="visible" style="display: block;" viewBox="0 0 41.25 33.75" fill="none" xmlns="http://www.w3.org/2000/svg">
<path id="Icon" d="M9.37501 15V22.5M31.875 11.25V18.75M30 1.875C34.5913 1.875 37.0746 2.57768 38.3102 3.1227C38.4748 3.19529 38.5571 3.23158 38.7945 3.4582C38.9369 3.59404 39.1967 3.99261 39.2635 4.17767C39.375 4.48638 39.375 4.65514 39.375 4.99264V25.1459C39.375 26.8498 39.375 27.7018 39.1195 28.1397C38.8596 28.5852 38.6089 28.7923 38.1224 28.9635C37.6441 29.1318 36.6787 28.9463 34.7478 28.5753C33.3964 28.3156 31.7935 28.125 30 28.125C24.375 28.125 18.75 31.875 11.25 31.875C6.65868 31.875 4.17539 31.1723 2.93979 30.6273C2.77524 30.5547 2.69297 30.5184 2.45551 30.2918C2.31317 30.156 2.05336 29.7574 1.98652 29.5723C1.87501 29.2636 1.87501 29.0949 1.87501 28.7574L1.87501 8.6041C1.87501 6.90016 1.87501 6.04819 2.13053 5.61027C2.39045 5.16481 2.64112 4.95772 3.12762 4.78652C3.60589 4.61822 4.57132 4.80372 6.50219 5.17471C7.85367 5.43439 9.45653 5.625 11.25 5.625C16.875 5.625 22.5 1.875 30 1.875ZM25.3125 16.875C25.3125 19.4638 23.2138 21.5625 20.625 21.5625C18.0362 21.5625 15.9375 19.4638 15.9375 16.875C15.9375 14.2862 18.0362 12.1875 20.625 12.1875C23.2138 12.1875 25.3125 14.2862 25.3125 16.875Z" stroke="#F9FAFB" stroke-width="3.75" stroke-linecap="round" stroke-linejoin="round"/>
</svg>
