<svg preserveAspectRatio="xMidYMid meet" width="100%" height="100%" overflow="visible" style="display: block;" viewBox="0 0 37.8489 40.5004" fill="none" xmlns="http://www.w3.org/2000/svg">
<path id="Icon" d="M9.80267 18.7298L2.66877 5.96391C1.84848 4.49603 1.43833 3.76209 1.50745 3.16118C1.56776 2.6369 1.84621 2.16231 2.27446 1.85392C2.7653 1.50044 3.60606 1.50044 5.28759 1.50044H9.47788C10.1028 1.50044 10.4153 1.50044 10.6956 1.59069C10.9436 1.67055 11.1722 1.80122 11.3669 1.97436C11.5869 2.17004 11.7455 2.43926 12.0627 2.97771L18.9245 14.6254L25.7862 2.97771C26.1034 2.43926 26.262 2.17004 26.4821 1.97436C26.6767 1.80122 26.9054 1.67055 27.1534 1.59069C27.4336 1.50044 27.7461 1.50044 28.371 1.50044H32.5613C34.2429 1.50044 35.0836 1.50044 35.5745 1.85392C36.0027 2.16231 36.2812 2.6369 36.3415 3.16118C36.4106 3.76209 36.0005 4.49603 35.1802 5.96391L28.0463 18.7298M16.112 24.0004L18.9245 22.1254V31.5004M16.5807 31.5004H21.2682M27.5423 18.1951C32.3018 22.9546 32.3018 30.6713 27.5423 35.4308C22.7828 40.1903 15.0661 40.1903 10.3066 35.4308C5.54709 30.6713 5.54709 22.9546 10.3066 18.1951C15.0661 13.4356 22.7828 13.4356 27.5423 18.1951Z" stroke="#F9FAFB" stroke-width="3" stroke-linecap="round" stroke-linejoin="round"/>
</svg>
