<svg preserveAspectRatio="xMidYMid meet" width="100%" height="100%" overflow="visible" style="display: block;" viewBox="0 0 41.8548 41.8548" fill="none" xmlns="http://www.w3.org/2000/svg">
<path id="Icon" d="M13.1028 14.8254C14.5165 17.77 16.4437 20.5297 18.8844 22.9704C21.3251 25.4111 24.0849 27.3383 27.0294 28.7521C27.2827 28.8737 27.4093 28.9345 27.5696 28.9812C28.1391 29.1472 28.8383 29.028 29.3206 28.6826C29.4563 28.5855 29.5724 28.4694 29.8046 28.2372C30.5148 27.527 30.8698 27.1719 31.2269 26.9398C32.5734 26.0643 34.3092 26.0643 35.6557 26.9398C36.0128 27.1719 36.3679 27.527 37.078 28.2372L37.4738 28.633C38.5533 29.7125 39.0931 30.2522 39.3863 30.8319C39.9694 31.9848 39.9694 33.3462 39.3863 34.4991C39.0931 35.0788 38.5533 35.6185 37.4738 36.698L37.1536 37.0182C36.0778 38.094 35.5399 38.6319 34.8086 39.0427C33.9971 39.4986 32.7367 39.8263 31.806 39.8236C30.9672 39.8211 30.3939 39.6584 29.2474 39.3329C23.0858 37.5841 17.2716 34.2844 12.421 29.4338C7.57045 24.5832 4.27074 18.769 2.52189 12.6075C2.19647 11.4609 2.03376 10.8877 2.03127 10.0489C2.0285 9.1181 2.35626 7.85772 2.81212 7.04623C3.22293 6.31491 3.76083 5.77701 4.83663 4.70122L5.15682 4.38102C6.23632 3.30153 6.77606 2.76178 7.35574 2.46858C8.5086 1.88547 9.87008 1.88547 11.0229 2.46858C11.6026 2.76178 12.1424 3.30153 13.2219 4.38102L13.6177 4.77685C14.3278 5.48699 14.6829 5.84206 14.915 6.19911C15.7905 7.5456 15.7905 9.28147 14.915 10.628C14.6829 10.985 14.3278 11.3401 13.6177 12.0502C13.3855 12.2824 13.2694 12.3985 13.1722 12.5342C12.8269 13.0165 12.7076 13.7158 12.8736 14.2853C12.9204 14.4455 12.9812 14.5721 13.1028 14.8254Z" stroke="#F9FAFB" stroke-width="4.0625" stroke-linecap="round" stroke-linejoin="round"/>
</svg>
