<svg preserveAspectRatio="xMidYMid meet" width="100%" height="100%" overflow="visible" style="display: block;" viewBox="0 0 51.0459 48" fill="none" xmlns="http://www.w3.org/2000/svg">
<path id="Vector" d="M47.9061 0H3.13983C1.40337 0 0 1.31963 0 2.95247V45.0475C0 46.6804 1.40337 48 3.13983 48H47.9061C49.6426 48 51.0459 46.6804 51.0459 45.0475V2.95247C51.0459 1.31963 49.6426 0 47.9061 0ZM23.9293 35.2731C23.9293 40.6636 19.2672 45.0475 13.5346 45.0475H4.78107C3.8772 45.0475 3.13983 44.3542 3.13983 43.5042V25.4986H13.5346C19.2672 25.4986 23.9293 29.8825 23.9293 35.2731ZM23.9293 12.7269C23.9293 18.1175 19.2672 22.5014 13.5346 22.5014H3.13983V4.49578C3.13983 3.64584 3.8772 2.95247 4.78107 2.95247H13.5346C19.2672 2.95247 23.9293 7.33641 23.9293 12.7269ZM47.9061 43.5042C47.9061 44.3542 47.1687 45.0475 46.2649 45.0475H28.7579C27.854 45.0475 27.1167 44.3542 27.1167 43.5042V35.2731C27.1167 29.8825 31.7788 25.4986 37.5114 25.4986H47.9061V43.5042ZM47.9061 6.53119V15.9254V19.4595V19.5489V22.5014H44.7663H42.9823H37.5114C31.7788 22.5014 27.1167 18.1175 27.1167 12.7269V12.6375V10.6468V10.5573V4.60763V4.51819C27.1167 3.13144 28.8769 2.46037 29.9235 3.42216L36.3935 9.50606C37.0119 10.0876 38.0109 10.0876 38.6293 9.50606L45.0993 3.42216C46.1221 2.46037 47.9061 3.13144 47.9061 4.51819V4.60763V6.44175V6.53119Z" fill="#FFFFFF"/>
</svg>
